<!-- Created with Inkscape (http://www.inkscape.org/) -->
<svg xmlns:rdf="http://www.w3.org/1999/02/22-rdf-syntax-ns#" xmlns="http://www.w3.org/2000/svg" height="24" width="24" version="1.1" xmlns:cc="http://creativecommons.org/ns#" xmlns:dc="http://purl.org/dc/elements/1.1/">
 <g transform="translate(0,-1028.3622)">
  <path fill="#3f3f3f" d="m7.3327,1041.4c0.43658,0,0.85606,0.073,1.2484,0.2061,0.3042-0.6744,0.6597-1.4635,1.076-2.3897l-0.26557-0.7304-0.9128-0.017v-0.7635h3.4359c0.30058,0.4112-0.12172,0.4095-1.6433,0.7469l0.26557,0.747h6.7888c-0.45731-1.5973-0.19898-1.481-2.2574-1.4774v-0.7799c2.8336,0.028,2.3423-0.2919,3.8596,4.589,0.23218-0.044,0.47139-0.067,0.71624-0.067,2.1525,0,3.9037,1.7514,3.9037,3.904,0,2.1525-1.7512,3.9036-3.9037,3.9036-2.1527,0-3.9039-1.7511-3.9039-3.9036,0-1.6108,0.9808-2.9968,2.3765-3.5923-0.0849-0.2672-0.17624-0.5525-0.27422-0.8573-5.711,6.0238-3.5685,5.0472-6.6417,5.1694-0.01468,0-0.02877-0.0002-0.04346-0.0003-0.36395,1.7783-1.9407,3.12-3.8246,3.12-2.1527,0-3.9039-1.7511-3.9039-3.9038,0-2.1524,1.7512-3.904,3.9039-3.904zm9.3207,3.9683c0,1.649,1.3415,2.9906,2.9905,2.9906s2.9907-1.3416,2.9907-2.9906c0-1.6489-1.3415-2.9904-2.9905-2.9904-0.14868,0-0.29474,0.012-0.43759,0.033,0.95263,3.0042,0.83836,2.6622,0.8442,2.9154,0.0046,0.2137-0.16779,0.383-0.38468,0.3978-0.3887-0.04-0.30118,0.025-1.2725-3.0704-1.0261,0.4741-1.7401,1.5124-1.7401,2.7153zm-3.8548-0.186,4.7233-5.1473-6.6431-0.012,1.9198,5.1592zm-1.5624,0.108,0.7263,0-1.8845-4.9468-0.73113,1.6199c1.1279,0.6821,1.8843,1.9186,1.8894,3.3292zm-2.2688-2.4885-1.1275,2.4982,2.4831-0.01c-0.004-1.0413-0.54301-1.9585-1.3556-2.4911zm-1.6347,5.4929c1.379,0,2.5426-0.9388,2.8867-2.2107-3.1126,0-3.3903,0.1626-3.4337-0.3775,0.0042-0.1573,0.06277-0.2651,1.4176-3.2633-0.27543-0.084-0.56776-0.1297-0.87035-0.1297-1.649,0-2.9905,1.3415-2.9905,2.9907,0,1.6491,1.3413,2.9905,2.9903,2.9905z"/>
  <path d="m4.337,1038.8-1.3095,0-0.42989,2.1333-0.91268,0,0.42989-2.1333-1.3293,0,0-0.6765,1.4616,0,0.3902-1.9147-1.4219,0,0-0.6868,1.5608,0,0.4365-2.1646,0.9193,0-0.44311,2.1646,1.3095,0,0.44311-2.1646,0.91268,0-0.4365,2.1646,1.2169,0,0,0.6868-1.3558,0-0.38359,1.9147,1.3095,0,0,0.6765-1.4418,0-0.42989,2.1333-0.92591,0,0.42989-2.1333m-1.1706-0.6765,1.3095,0,0.38359-1.9147-1.3095,0-0.38359,1.9147" fill="#565656"/>
 </g>
</svg>
