<svg xmlns:rdf="http://www.w3.org/1999/02/22-rdf-syntax-ns#" xmlns="http://www.w3.org/2000/svg" enable-background="new 0 0 45 45" xml:space="preserve" height="42" viewBox="0 0 65 42" width="65" version="1.1" y="0px" x="0px" xmlns:cc="http://creativecommons.org/ns#" xmlns:dc="http://purl.org/dc/elements/1.1/"><g transform="translate(10.022,1.4725028)"><path d="m15.327,29.85v-14.045c-0.53646-0.49923-0.56659-0.11293-0.50477,0.43417v13.352c0.16826,0.08626,0.33652,0.17251,0.50477,0.25877z" fill="#bababa"/><path d="m22.07,27.176c0.44862-0.19556,0.82162-0.04443,0.64995-0.70128v-13.436c-0.47718-0.23596-0.84338,0.19958-0.6783,0.67238,0.0095,4.4882,0.01889,8.9764,0.02834,13.465z" fill="#bababa"/><path d="m29.721,15.577v14.292c0.43963-0.19564,0.81034-0.43063,0.64995-0.96879v-13.678c-0.21665,0.11807-0.4333,0.23614-0.64995,0.35421z" fill="#bababa"/><path d="m24.26,13.172c-0.61628-0.21333-1.2326-0.58056-1.8488-0.70091-2.3644,0.96693-4.7288,1.9339-7.0932,2.9008-1.659-0.90043-3.3181-1.8009-4.9771-2.7013v14.903c1.6864,0.91522,3.3728,1.8304,5.0591,2.7457,2.3672-0.94497,4.72-1.9637,7.0962-2.8626,2.3638,0.91325,4.7056,1.9127,7.0596,2.8626,1.6868-0.91522,3.3737-1.8304,5.0605-2.7457v-14.903c-1.6595,0.90044-3.319,1.8009-4.9785,2.7013-0.59618-0.24376-1.1924-0.48752-1.7885-0.73128" fill="none"/><path d="m29.638,15.372c1.6595-0.90043,3.319-1.8009,4.9785-2.7013v14.903c-1.6868,0.91522-3.3737,1.8304-5.0605,2.7457-2.3405-0.95454-4.6761-1.921-7.0218-2.8626-1.2046,0.38541-2.3735,0.95246-3.5644,1.4077-1.1899,0.48499-2.3797,0.96997-3.5696,1.455-1.6864-0.91522-3.3728-1.8304-5.0591-2.7457v-14.903c1.659,0.90044,3.3181,1.8009,4.9771,2.7013,2.387-0.97616,4.7739-1.9523,7.1609-2.9285,0.59372,0.24286,1.1874,0.48573,1.7812,0.72859-0.23771-0.59304-0.47542-1.1861-0.71313-1.7791-0.49137-0.12712-0.98274-0.62708-1.4741-0.27078-2.2243,0.90981-4.4485,1.8196-6.6728,2.7294-2.1452-1.1648-4.2905-2.3296-6.4357-3.4944v18.035c2.1179,1.1493,4.2358,2.2987,6.3537,3.448,2.387-0.97639,4.7739-1.9528,7.1609-2.9292,2.3863,0.97639,4.7726,1.9528,7.1589,2.9292,2.1181-1.1493,4.2362-2.2987,6.3543-3.448v-18.035c-2.1454,1.1648-4.2909,2.3296-6.4363,3.4944-0.3945-0.10759-0.89969-0.47519-1.226-0.42268-0.1057,0.39956-0.46509,0.90715-0.41282,1.2394,0.57362,0.23454,1.1472,0.46907,1.7209,0.70361z" fill="#bababa"/><path d="m26.372,7.5259c-1.7922-0.087208-3.1315,2.0269-2.3449,3.5927,0.78163,1.9514,1.5633,3.9028,2.3449,5.8542,0.83418-2.111,1.6863-4.2343,2.5093-6.3377,0.38068-1.5454-0.92015-3.1516-2.5093-3.1092zm0,3.9137c-2.059-0.05752-1.0183-3.3411,0.64088-2.2123,1.066,0.65442,0.48887,2.127-0.64088,2.2123z" stroke="#bababa" stroke-dasharray="none" stroke-miterlimit="4" stroke-width="0.61788934" fill="#ededed"/></g></svg>
