<!-- Created with Inkscape (http://www.inkscape.org/) -->
<svg xmlns:rdf="http://www.w3.org/1999/02/22-rdf-syntax-ns#" xmlns="http://www.w3.org/2000/svg" height="87.375" width="53.465" version="1.1" xmlns:cc="http://creativecommons.org/ns#" xmlns:xlink="http://www.w3.org/1999/xlink" xmlns:dc="http://purl.org/dc/elements/1.1/">
 <defs>
  <linearGradient id="linearGradient9659" y2="371.5" gradientUnits="userSpaceOnUse" x2="499.51" gradientTransform="translate(-473.26813,-371.53125)" y1="458.53" x1="499.51">
   <stop stop-color="#09C" offset="0"/>
   <stop stop-color="#00b6f4" offset="1"/>
  </linearGradient>
 </defs>
 <path d="m25.922,1.9988c-1.355,0.08-2.6462,0.25875-3.8438,0.46875-1.1475,0.2075-2.245,0.48-3.3125,0.84375-6.1225,2.06-10.77,5.9525-13.688,11.031-2.0062,3.49-3.34,7.8388-3.0312,13.156,0.13375,2.4462,0.77875,4.645,1.5312,6.625,0.78375,1.9538,1.6825,3.7138,2.75,5.4062,4.065,6.62,9.5925,12.512,12.719,20.094,1.59,3.8525,2.9888,7.8862,4.1875,12.156,1.1688,4.2188,2.2438,8.6988,2.6875,13.594h1.625c0.4425-4.895,1.5188-9.375,2.6875-13.594,1.2-4.27,2.5962-8.3038,4.1875-12.156,3.1262-7.5812,8.6538-13.474,12.719-20.094,1.0688-1.6925,1.9688-3.4525,2.75-5.4062,0.75375-1.98,1.4012-4.1788,1.5312-6.625,0.31125-5.3175-0.995-9.6662-3-13.156-2.9175-5.0788-7.5738-8.9712-13.719-11.031-1.0675-0.36375-2.165-0.63625-3.3125-0.84375-1.1975-0.21-2.49-0.38875-3.8438-0.46875h-0.8125z" fill-rule="evenodd" stroke="#007196" stroke-miterlimit="4" stroke-dasharray="none" stroke-width="1.50000000000000000" fill="url(#linearGradient9659)"/>
 <path fill="#FFF" d="m34.382,24.855h-0.31071v-4.9712c-0.277-7.204-7.05-7.506-7.118-7.508l-0.017-0.001c-2.1115,0-3.7947,0.66234-5.079,1.9686-2.2298,2.2685-2.186,5.6489-2.186,5.7807v4.7305h-0.60148c-0.75849,0-1.337,0.58472-1.337,1.3498v11.824c0,0.76482,0.57849,1.3467,1.337,1.3467h15.312c0.75877,0,1.3508-0.58193,1.3508-1.3467v-11.825c0-0.7651-0.59206-1.3498-1.3508-1.3498zm-12.496-4.742c0-0.02457,0.12018-2.5014,1.6089-4.0159,0.81028-0.8243,1.8961-1.2272,3.3336-1.2314,0.35031,0.01563,4.7498,0.30576,4.7498,5.1027v4.8863h-9.6923v-4.7417z"/>
</svg>
