<svg xmlns:rdf="http://www.w3.org/1999/02/22-rdf-syntax-ns#" xmlns="http://www.w3.org/2000/svg" enable-background="new 0 0 100 100" xml:space="preserve" height="100px" width="100px" version="1.1" y="0px" x="0px" xmlns:cc="http://creativecommons.org/ns#" xmlns:dc="http://purl.org/dc/elements/1.1/" viewBox="0 0 100 100"><defs/><path d="M51.25,1.3125c-7.058-0.1299-14.351,2.4016-19.075,7.8041-5.5008,6.147-7.4811,14.66-7.1751,22.739v14.144h52c-0.0395-6.3341,0.08097-12.673-0.06386-19.004-0.388-7.81-3.893-15.696-10.43-20.244-4.444-3.1696-9.825-5.0288-15.256-5.4394zm-0.40625,8.9062c6.6921,0.38393,13.586,4.211,15.903,10.776,1.8316,4.8118,1.1012,10.021,1.2534,15.047v9.958h-35c0.01933-5.7965-0.03878-11.596,0.02926-17.391,0.63833-6.2355,3.1047-13.038,8.8247-16.311,2.7206-1.5427,5.8953-2.0745,8.9898-2.0792z" stroke="#bababa" stroke-miterlimit="4" stroke-dasharray="none" stroke-width="0.89999998" fill="#cccfcd"/><path stroke-linejoin="round" d="M22.812,46c-3-0.141-5.234,2.84-4.812,5.69,0.01596,14.001-0.03193,28.003,0.02396,42.003,0.14874,2.894,3.102,4.6987,5.8043,4.3071,18.267-0.01594,36.536,0.0319,54.803-0.02396,2.896-0.149,4.768-3.079,4.369-5.804v-11.797h-8.0938c0.24912-0.81601-0.55226-2.6825,0.50788-2.6875h7.5859v-3.3125h-8.0938c0.24912-0.81601-0.55226-2.6825,0.50788-2.6875h7.5859v-3.3125h-8.0938c0.24912-0.81601-0.55226-2.6825,0.50788-2.6875h7.5859c-0.06-5.278,0.123-10.571-0.097-15.839-0.445-2.746-3.328-4.187-5.903-3.849h-54.188z" stroke="#bababa" fill="#cccfcd"/></svg>
